<svg width="440" height="60" viewBox="0 0 440 60" fill="none" xmlns="http://www.w3.org/2000/svg">
  <defs>
    <linearGradient id="gradient1" x1="0%" y1="0%" x2="100%" y2="0%">
      <stop offset="0%" style="stop-color:#9FD356;stop-opacity:1" />
      <stop offset="50%" style="stop-color:#67B346;stop-opacity:1" />
      <stop offset="100%" style="stop-color:#67B346;stop-opacity:1" />
    </linearGradient>
  </defs>
  
  <!-- First A -->
  <path d="M 20 50 L 35 10 L 50 50 M 27 35 L 43 35" stroke="url(#gradient1)" stroke-width="6" fill="none" stroke-linecap="round" stroke-linejoin="round"/>
  
  <!-- Second A -->
  <path d="M 65 50 L 80 10 L 95 50 M 72 35 L 88 35" stroke="url(#gradient1)" stroke-width="6" fill="none" stroke-linecap="round" stroke-linejoin="round"/>
  
  <!-- R -->
  <path d="M 110 50 L 110 10 L 130 10 Q 140 10 140 20 Q 140 30 130 30 L 110 30 M 125 30 L 140 50" stroke="url(#gradient1)" stroke-width="6" fill="none" stroke-linecap="round" stroke-linejoin="round"/>
  
  <!-- Third A -->
  <path d="M 155 50 L 170 10 L 185 50 M 162 35 L 178 35" stroke="url(#gradient1)" stroke-width="6" fill="none" stroke-linecap="round" stroke-linejoin="round"/>
  
  <!-- M -->
  <path d="M 200 50 L 200 10 L 220 35 L 240 10 L 240 50" stroke="url(#gradient1)" stroke-width="6" fill="none" stroke-linecap="round" stroke-linejoin="round"/>
  
  <!-- B -->
  <path d="M 255 50 L 255 10 L 275 10 Q 285 10 285 17.5 Q 285 25 275 25 L 255 25 M 255 25 L 275 25 Q 285 25 285 37.5 Q 285 50 275 50 L 255 50" stroke="url(#gradient1)" stroke-width="6" fill="none" stroke-linecap="round" stroke-linejoin="round"/>
  
  <!-- H -->
  <path d="M 300 50 L 300 10 M 300 30 L 320 30 M 320 10 L 320 50" stroke="url(#gradient1)" stroke-width="6" fill="none" stroke-linecap="round" stroke-linejoin="round"/>
  
  <!-- 3.0 -->
  <g fill="url(#gradient1)">
    <text x="340" y="38" font-family="Arial, sans-serif" font-size="36" font-weight="bold">3.0</text>
  </g>
</svg>
